<?xml version="1.0" encoding="UTF-8"?>
<!DOCTYPE svg PUBLIC "-//W3C//DTD SVG 1.1//EN" "http://www.w3.org/Graphics/SVG/1.1/DTD/svg11.dtd">
<!-- Creator: CorelDRAW X7 -->
<svg xmlns="http://www.w3.org/2000/svg" xml:space="preserve" width="170.706mm" height="64.7mm" version="1.1" style="shape-rendering:geometricPrecision; text-rendering:geometricPrecision; image-rendering:optimizeQuality; fill-rule:evenodd; clip-rule:evenodd"
viewBox="0 0 2601 986"
 xmlns:xlink="http://www.w3.org/1999/xlink">
 <defs>
  <style type="text/css">
   <![CDATA[
    .str0 {stroke:#E31E24;stroke-width:15.2354}
    .fil0 {fill:#FEFEFE}
    .fil3 {fill:#FEFEFE;fill-rule:nonzero}
    .fil4 {fill:#9D9E9E;fill-rule:nonzero}
    .fil2 {fill:#5B5B5B;fill-rule:nonzero}
    .fil1 {fill:url(#id0)}
   ]]>
  </style>
  <radialGradient id="id0" gradientUnits="userSpaceOnUse" gradientTransform="matrix(1 -0 -0 0.951612 0 24)" cx="517.922" cy="492.864" r="452.702" fx="517.922" fy="492.864">
   <stop offset="0" style="stop-opacity:1; stop-color:#C72D2D"/>
   <stop offset="1" style="stop-opacity:1; stop-color:#E31E24"/>
  </radialGradient>
 </defs>
 <g id="Layer_x0020_1">
  <metadata id="CorelCorpID_0Corel-Layer"/>
  <rect class="fil0 str0" x="605" y="8" width="1989" height="970" rx="401" ry="206"/>
  <rect class="fil1" width="1036" height="986" rx="209" ry="209"/>
  <path class="fil2" d="M1140 351l48 0 0 342 -48 0 0 -342zm179 50c-4,-4 -8,-7 -14,-9 -5,-1 -12,-2 -19,-2 -30,0 -54,7 -71,22 -17,16 -27,37 -27,65l-7 -66c12,-21 29,-37 49,-48 20,-12 42,-18 67,-18 8,0 15,2 21,4 6,2 12,6 17,10l-16 42z"/>
  <path id="1" class="fil2" d="M1495 698c-26,0 -47,-5 -65,-14 -18,-10 -32,-24 -41,-43 -10,-19 -14,-41 -14,-67l0 -106c0,-26 4,-48 14,-66 9,-18 23,-32 41,-42 18,-10 39,-15 65,-15 25,0 46,5 64,15 18,10 32,24 41,42 10,18 14,40 14,66l0 107c0,26 -4,48 -14,66 -9,19 -23,33 -41,43 -18,9 -39,14 -64,14zm-1 -44c23,0 41,-7 54,-21 12,-14 19,-33 19,-58l0 -107c0,-25 -7,-44 -19,-58 -13,-14 -31,-20 -54,-20 -23,0 -40,6 -53,20 -12,14 -19,33 -19,58l0 107c0,25 7,44 19,58 13,14 30,21 53,21z"/>
  <path id="2" class="fil2" d="M1806 698c-25,0 -46,-5 -64,-14 -18,-10 -32,-24 -41,-43 -10,-19 -14,-41 -14,-67l0 -106c0,-26 4,-48 14,-66 9,-18 23,-32 41,-42 18,-10 39,-15 64,-15 26,0 47,5 65,15 18,10 32,24 41,42 9,18 14,40 14,66l0 107c0,26 -5,48 -14,66 -9,19 -23,33 -41,43 -18,9 -39,14 -65,14zm0 -44c23,0 41,-7 54,-21 12,-14 19,-33 19,-58l0 -107c0,-25 -7,-44 -19,-58 -13,-14 -31,-20 -54,-20 -23,0 -41,6 -53,20 -13,14 -19,33 -19,58l0 107c0,25 6,44 19,58 12,14 30,21 53,21z"/>
  <path id="3" class="fil2" d="M2373 469c0,-26 -6,-46 -18,-59 -12,-14 -29,-20 -52,-20 -21,0 -38,6 -49,20 -11,14 -17,34 -17,61l-17 -46c9,-26 21,-46 38,-59 17,-14 37,-21 60,-21 22,0 41,5 56,14 15,10 27,24 34,42 8,18 12,41 12,67l0 225 -47 0 0 -224zm-366 -118l47 0 0 342 -47 0 0 -342zm183 118c0,-26 -6,-46 -17,-59 -11,-14 -27,-20 -48,-20 -23,0 -41,6 -53,20 -12,13 -18,32 -18,57l-7 -57c10,-23 23,-39 39,-49 16,-10 35,-16 57,-16 20,0 37,5 52,14 14,10 24,24 31,42 8,18 11,41 11,67l0 225 -47 0 0 -224z"/>
  <path class="fil3" d="M303 261l53 0 0 497 -53 0 0 -497zm-131 -33l315 0 0 49 -315 0 0 -49z"/>
  <path id="1" class="fil3" d="M567 485l139 0c18,0 33,-4 46,-11 14,-7 24,-17 31,-31 7,-13 10,-29 10,-47l0 -28c0,-18 -3,-35 -10,-48 -7,-14 -17,-25 -31,-32 -13,-7 -28,-11 -46,-11l-139 0 0 -49 136 0c29,0 54,6 76,16 21,11 37,27 49,48 12,20 17,45 17,73l0 31c0,28 -5,52 -17,73 -12,21 -28,37 -49,48 -22,11 -47,17 -76,17l-136 0 0 -49zm-33 -257l53 0 0 530 -53 0 0 -530zm173 289l47 -16 110 257 -62 0 -95 -241z"/>
  <path class="fil4" d="M1529 831c-3,0 -5,0 -7,-1 -2,-2 -4,-3 -5,-5 -1,-2 -2,-5 -2,-7l0 -20c0,-3 1,-5 2,-7 1,-2 3,-4 5,-5 2,-1 4,-2 7,-2 3,0 6,1 8,2 2,1 3,3 4,5 1,2 2,4 2,7l0 1 -7 0 0 -1c0,-2 -1,-4 -2,-5 -1,-1 -3,-2 -5,-2 -2,0 -3,1 -5,2 -1,1 -1,3 -1,5l0 20c0,2 0,3 1,5 2,1 3,1 5,1 2,0 4,0 5,-2 1,-1 2,-2 2,-5l0 -1 7 0 0 1c0,3 0,6 -2,8 -1,2 -2,3 -4,4 -2,2 -5,2 -8,2z"/>
  <path id="1" class="fil4" d="M1550 767l7 0 0 63 -7 0 0 -63zm21 32c0,-3 -1,-5 -2,-6 -1,-1 -3,-2 -5,-2 -2,0 -4,1 -5,2 -1,1 -2,3 -2,6l0 -7c1,-3 2,-5 4,-6 2,-1 4,-2 6,-2 4,0 6,1 8,3 2,3 3,6 3,10l0 33 -7 0 0 -31z"/>
  <path id="2" class="fil4" d="M1608 797c0,-2 -1,-4 -2,-5 -1,-1 -3,-2 -5,-2 -2,0 -3,1 -4,2 -2,1 -2,3 -2,5l-7 0c0,-4 1,-7 3,-9 3,-3 6,-4 10,-4 3,0 5,1 7,2 2,1 4,2 5,4 1,2 2,4 2,7l0 33 -7 0 0 -33zm-9 34c-4,0 -7,-1 -9,-3 -2,-2 -3,-5 -3,-10 0,-5 1,-9 3,-11 3,-3 6,-4 11,-4l7 0 1 6 -8 0c-2,0 -4,1 -5,2 -2,2 -2,4 -2,7 0,3 0,4 1,5 2,2 3,2 5,2 3,0 5,-1 6,-2 1,-1 2,-3 2,-6l1 4c-1,2 -1,4 -2,6 0,1 -2,2 -3,3 -1,1 -3,1 -5,1z"/>
  <path id="3" class="fil4" d="M1636 831c-4,0 -6,-1 -8,-3 -2,-2 -3,-5 -3,-9l0 -47 8 0 0 47c0,1 0,3 1,3 0,1 2,2 3,2l3 0 0 7 -4 0zm-15 -46l19 0 0 7 -19 0 0 -7z"/>
  <polygon id="4" class="fil4" points="1661,759 1668,759 1668,838 1661,838 "/>
  <path id="5" class="fil4" d="M1711 797c0,-2 0,-4 -2,-5 -1,-1 -2,-2 -5,-2 -1,0 -3,1 -4,2 -1,1 -1,3 -1,5l-8 0c0,-4 2,-7 4,-9 2,-3 5,-4 10,-4 3,0 5,1 7,2 2,1 4,2 5,4 1,2 1,4 1,7l0 33 -7 0 0 -33zm-9 34c-4,0 -7,-1 -9,-3 -1,-2 -2,-5 -2,-10 0,-5 1,-9 3,-11 2,-3 6,-4 11,-4l7 0 0 6 -7 0c-3,0 -5,1 -6,2 -1,2 -2,4 -2,7 0,3 1,4 2,5 1,2 3,2 5,2 2,0 4,-1 5,-2 2,-1 2,-3 2,-6l1 4c0,2 0,4 -1,6 -1,1 -2,2 -3,3 -2,1 -4,1 -6,1z"/>
  <path id="6" class="fil4" d="M1747 785l8 0 0 45 -8 0 0 -45zm-12 33c0,2 1,4 2,5 1,1 2,1 4,1 2,0 4,0 5,-1 1,-1 1,-3 1,-5l1 6c-1,2 -2,4 -4,5 -1,1 -3,2 -6,2 -3,0 -6,-1 -7,-3 -2,-2 -3,-6 -3,-10l0 -33 7 0 0 33z"/>
  <path id="7" class="fil4" d="M1784 767l7 0 0 63 -7 0 0 -63zm-10 64c-2,0 -4,0 -6,-1 -1,-1 -2,-3 -3,-5 -1,-2 -2,-5 -2,-7l0 -20c0,-3 1,-5 2,-7 1,-2 2,-4 3,-5 2,-1 4,-2 6,-2 2,0 4,1 6,2 2,2 3,4 4,6l0 7c0,-2 -1,-3 -1,-5 -1,-1 -1,-2 -2,-2 -1,-1 -2,-1 -4,-1 -2,0 -3,0 -5,2 -1,1 -1,3 -1,6l0 18c0,3 0,4 1,6 2,1 3,2 5,2 2,0 3,-1 4,-1 1,-1 1,-2 2,-3 0,-1 1,-2 1,-4l0 6c-1,3 -2,5 -4,6 -1,2 -3,2 -6,2z"/>
  <path id="8" class="fil4" d="M1801 768l7 0 0 8 -7 0 0 -8zm0 17l7 0 0 45 -7 0 0 -45z"/>
  <path id="9" class="fil4" d="M1831 831c-3,0 -6,0 -8,-1 -2,-1 -3,-3 -4,-5 -1,-2 -2,-4 -2,-7l0 -21c0,-3 1,-5 2,-7 1,-2 2,-3 4,-4 2,-1 5,-2 8,-2 2,0 5,1 7,2 2,1 3,2 4,4 1,2 2,4 2,7l0 21c0,3 -1,5 -2,7 -1,2 -2,4 -4,5 -2,1 -5,1 -7,1zm-1 -7c2,0 4,0 5,-2 1,-1 1,-2 1,-4l0 -21c0,-2 0,-3 -1,-4 -1,-1 -3,-2 -5,-2 -1,0 -3,1 -4,2 -1,1 -1,2 -1,4l0 21c0,2 0,3 1,4 1,2 3,2 4,2z"/>
  <polygon id="10" class="fil4" points="1866,759 1873,759 1873,838 1866,838 "/>
  <polygon id="11" class="fil4" points="1917,785 1924,785 1911,830 1905,830 1893,785 1900,785 1908,820 "/>
  <path id="12" class="fil4" d="M1931 768l7 0 0 8 -7 0 0 -8zm0 17l7 0 0 45 -7 0 0 -45z"/>
  <path id="13" class="fil4" d="M1967 767l8 0 0 63 -8 0 0 -63zm-9 64c-2,0 -4,0 -6,-1 -1,-1 -2,-3 -3,-5 -1,-2 -2,-5 -2,-7l0 -20c0,-3 1,-5 2,-7 1,-2 2,-4 3,-5 2,-1 4,-2 6,-2 2,0 4,1 6,2 2,2 3,4 4,6l-1 7c0,-2 0,-3 0,-5 -1,-1 -1,-2 -2,-2 -1,-1 -3,-1 -4,-1 -2,0 -3,0 -5,2 -1,1 -1,3 -1,6l0 18c0,3 0,4 1,6 2,1 3,2 5,2 1,0 3,-1 4,-1 1,-1 1,-2 2,-3 0,-1 0,-2 0,-4l1 6c-1,3 -2,5 -4,6 -1,2 -4,2 -6,2z"/>
  <path id="14" class="fil4" d="M1997 831c-3,0 -5,0 -7,-2 -2,-1 -4,-3 -5,-5 -1,-2 -1,-5 -1,-8l0 -16c0,-3 0,-6 1,-9 1,-2 3,-4 5,-5 2,-1 4,-2 7,-2 3,0 5,1 7,2 2,1 4,3 5,5 1,2 2,5 2,8l0 12 -23 0 0 -7 16 0 0 -5c0,-3 -1,-5 -2,-6 -1,-1 -3,-2 -5,-2 -2,0 -4,1 -5,2 -1,2 -1,4 -1,7l0 16c0,3 0,5 1,6 2,2 3,2 5,2 2,0 4,0 5,-1 1,-1 2,-3 2,-5l0 0 7 0 0 0c0,4 -1,7 -4,10 -2,2 -5,3 -10,3z"/>
  <path id="15" class="fil4" d="M2032 831c-3,0 -5,0 -7,-1 -2,-1 -4,-3 -5,-5 -1,-2 -1,-4 -1,-7l0 -21c0,-3 0,-5 1,-7 1,-2 3,-3 5,-4 2,-1 4,-2 7,-2 3,0 5,1 7,2 2,1 3,2 4,4 1,2 2,4 2,7l0 21c0,3 -1,5 -2,7 -1,2 -2,4 -4,5 -2,1 -4,1 -7,1zm0 -7c2,0 3,0 4,-2 1,-1 2,-2 2,-4l0 -21c0,-2 -1,-3 -2,-4 -1,-1 -2,-2 -4,-2 -2,0 -3,1 -4,2 -1,1 -2,2 -2,4l0 21c0,2 1,3 2,4 1,2 2,2 4,2z"/>
 </g>
</svg>
